<svg 
xmlns="http://www.w3.org/2000/svg" 
xmlns:xlink="http://www.w3.org/1999/xlink" width="113.563" height="75.142" viewBox="0 0 113.563 75.142">
  <defs>
    <filter id="Path_2495" x="0" y="0" width="113.563" height="75.142" filterUnits="userSpaceOnUse">
      <feOffset dy="10" input="SourceAlpha"/>
      <feGaussianBlur stdDeviation="10" result="blur"/>
      <feFlood flood-opacity="0.161"/>
      <feComposite operator="in" in2="blur"/>
      <feComposite in="SourceGraphic"/>
    </filter>
  </defs>
  <g id="organic-brand-svg" transform="translate(16.262 -956.413)">
    <g transform="matrix(1, 0, 0, 1, -16.26, 956.41)" filter="url(#Path_2495)">
      <path id="Path_2495-2" data-name="Path 2495" d="M264.131,564.824c-.28-.975-.56-1.3-8.112-2.926s-27.134,1.3-34.967,1.95c-.949.079-1.786.115-2.531.12a8.4,8.4,0,0,1-6.185-1.492c-1.562,1.022-2.4,10.846-.516,12.1,1.958,1.3,6.713,2.925,16.5,1.3s25.735-2.274,29.929-1.624c2.487.385,3.905,1.176,4.117.931a5.6,5.6,0,0,0,1.2-2.556A20.514,20.514,0,0,0,264.131,564.824Z" transform="translate(-180.74 -541.41)" fill="#f9f7f4"/>
    </g>
    <path id="Path_2496" data-name="Path 2496" d="M351.276,637.34c-.051-.089.005-.14.094-.19a1.138,1.138,0,0,1,.845.074,3.6,3.6,0,0,1,1.449,1.895,3.869,3.869,0,0,1,.037,1.785,2.325,2.325,0,0,1-2.074,1.87,1.985,1.985,0,0,1-2.235-1.5,4.3,4.3,0,0,1,.323-2.587,2.029,2.029,0,0,1,1.376-1.2C351.279,637.429,351.279,637.429,351.276,637.34Zm.965,1.151c-.093-.137-.244-.323-.3-.412-.092-.088-.134-.145-.183-.144a.79.79,0,0,0-.237.054.859.859,0,0,0-.742.531,2.618,2.618,0,0,0-.39,1.319,3.348,3.348,0,0,0,.028,1.359,2.382,2.382,0,0,0,.431.655c.476.416.811.4,1.317-.125a2.79,2.79,0,0,0,.075-3.236Z" transform="translate(-325.284 344.933)" fill="#004341"/>
    <path id="Path_2497" data-name="Path 2497" d="M420.985,631.049c.016-.06.1-.1.154-.132a1.062,1.062,0,0,1,.3-.08.515.515,0,0,1,.41.074c.033.053.074.047.148-.022a1.8,1.8,0,0,1,.934-.229,1.4,1.4,0,0,1,1.551,1.284,1.251,1.251,0,0,1-.227,1.1,1.749,1.749,0,0,1-.776.552c-.11.042-.156.116-.1.131a1.367,1.367,0,0,1,.18.254c.1.1.214.257.284.329.037.074.108.157.111.182s.041.051.041.051a.07.07,0,0,1,.065.047c.033.053.107.1.14.152s.1.074.1.1a.088.088,0,0,0,.033.053s.107.1.176.171c.168.173.2.193.305.148a.531.531,0,0,1,.655.105c.069.074.1.1.054.191a.856.856,0,0,1-.862.532c-.117-.007-.235-.022-.239-.045a.72.72,0,0,1-.148-.035,1.745,1.745,0,0,1-.816-.619,1.657,1.657,0,0,1-.209-.223,7.766,7.766,0,0,1-.807-1.142c-.046-.134-.046-.134-.016.06.018.114.021.345.042.482a4.333,4.333,0,0,0,.039.624,3.725,3.725,0,0,1-.067,1.221.489.489,0,0,1-.52.2c-.148-.036-.148-.059-.251-.334a11.338,11.338,0,0,1-.381-2.444c-.05-.481-.172-1.266-.25-1.768C420.9,631.119,420.913,631.118,420.985,631.049Zm2.353.9c-.078-.5-.268-.762-.537-.836a.77.77,0,0,0-.5.078c-.056.009-.11.042-.166.05-.053.033-.051.042-.016.433l.154.987c.074.619.062.612.341.544.421-.065.574-.2.668-.5a1.4,1.4,0,0,0,.057-.754Z" transform="translate(-391.597 350.893)" fill="#004341"/>
    <path id="Path_2498" data-name="Path 2498" d="M494.083,620.3a2.053,2.053,0,0,1,1.087-.653,2.714,2.714,0,0,1,.493-.016,1.714,1.714,0,0,1,.947.278,1.4,1.4,0,0,1,.324.383c.045.1-.074.223-.285.247a.458.458,0,0,1-.367-.106.925.925,0,0,0-1.113-.148,1.667,1.667,0,0,0-.6.845,2.887,2.887,0,0,0-.046,1.456,2.251,2.251,0,0,0,.384,1.187c.272.5.735.871,1.039.8a1.59,1.59,0,0,0,.655-.463,1.89,1.89,0,0,0,.269-.742c0-.033-.045-.036-.3-.04-.459.02-.784-.082-.809-.3-.008-.074.154-.232.289-.281a2.261,2.261,0,0,1,.436-.148c.208-.057.411-.154.519-.167a1.111,1.111,0,0,1,.988.059c.082.065.085.1.114.341a2.183,2.183,0,0,1-.038.886,1.913,1.913,0,0,1-.66.992,2.543,2.543,0,0,1-1.688.657,4.878,4.878,0,0,1-.94-.213,5.361,5.361,0,0,1-.707-.619.691.691,0,0,0-.127-.167,4.938,4.938,0,0,1-.425-.9,4.264,4.264,0,0,1-.157-1.359,3.153,3.153,0,0,1,.2-1.013.49.49,0,0,1,.09-.148A2.837,2.837,0,0,1,494.083,620.3Z" transform="translate(-458.645 361.108)" fill="#004341"/>
    <path id="Path_2499" data-name="Path 2499" d="M576.776,612.369c.027-.068.121-.133.148-.168.158-.079.183-.08.318-.025a.62.62,0,0,1,.387.322c.081.191.4.913.4.945a.556.556,0,0,0,.079.158,3.084,3.084,0,0,1,.122.286,1.232,1.232,0,0,1,.074.249,1.04,1.04,0,0,1,.159.349c.371.948.336.918.535.935a.554.554,0,0,1,.4.231c.071.06.074.093.016.2a.357.357,0,0,1-.142.168l-.125.074c-.033,0,.251.668.3.831.035.03.07.148.143.243.119.254.119.254.062.357a.49.49,0,0,1-.24.183.418.418,0,0,1-.392.031c-.3-.074-.4-.2-.685-.857a3.51,3.51,0,0,1-.2-.51,1.908,1.908,0,0,0-.623.017c-.678.054-.584-.011-.726.683a1.22,1.22,0,0,1-.269.638.914.914,0,0,1-.7.351c-.229.019-.286.023-.392-.068-.272-.11-.258-.341,0-.46.223-.116.27-.219.462-1.113.017-.2.092-.492.114-.626.145-.661.223-1.193.367-1.887a1.03,1.03,0,0,1,.1-.4.682.682,0,0,1,.05-.2A3.585,3.585,0,0,1,576.776,612.369Zm.873,2.8c-.048-.193-.164-.406-.207-.534a2.692,2.692,0,0,1-.089-.289c-.04-.095-.032-.1-.057,0-.047.234-.159.891-.173,1.123a.561.561,0,0,0-.044.266,2.451,2.451,0,0,0,.643-.084C577.849,615.612,577.851,615.636,577.649,615.171Z" transform="translate(-534.442 368.039)" fill="#004341"/>
    <path id="Path_2500" data-name="Path 2500" d="M647.32,607.161l.128-.074a.8.8,0,0,1,.668-.035c.1.027.168.09.275.248.038.1.108.183.11.216.034.031.064.128.134.223.039.129.074.217.11.216a5.465,5.465,0,0,0,.259.569.253.253,0,0,1,.031.13.8.8,0,0,1,.108.183c.038.1.144.246.182.343s.108.191.074.193l.5.937c.144.247.136.247.157.024.016-.321-.074-2.727-.09-2.98-.043-.194-.045-.227.05-.3a.907.907,0,0,1,.247-.136.527.527,0,0,1,.319-.016c.257.052.3.074.406.233.074.128.066.16.106.929.021.417.022,1.057.04,1.41-.015.965-.045,2.126-.043,2.159,0,0-.024.157-.049.322-.044.421-.094.554-.287.63a.246.246,0,0,1-.3.016c-.2-.022-.223-.087-.683-.834-.385-.62-.885-1.57-1.2-2.193-.074-.16-.074-.16-.1.038.005.1-.016.321-.006.52,0,.583-.042,1.707-.041,1.741,0,0-.026.125-.05.289-.049.322-.1.456-.26.53a.395.395,0,0,1-.558-.168,9.39,9.39,0,0,1-.156-1.887c.014-.353-.007-1.254-.047-2.023S647.322,607.193,647.32,607.161Z" transform="translate(-601.182 372.9)" fill="#004341"/>
    <path id="Path_2501" data-name="Path 2501" d="M715.471,605.751c.039-.042.111-.118.185-.121a1.031,1.031,0,0,1,.581-.019.7.7,0,0,1,.285.458c.007.229.013,1.7-.025,2.852-.051,2.009-.094,2.232-.434,2.357a.374.374,0,0,1-.462-.1c-.118-.111-.118-.111-.148-2.379,0-1.27-.044-2.465-.051-2.661C715.354,605.87,715.4,605.827,715.471,605.751Z" transform="translate(-664.193 374.111)" fill="#004341"/>
    <path id="Path_2502" data-name="Path 2502" d="M747.146,607.422a2.6,2.6,0,0,1,1.7-1.878,1.762,1.762,0,0,1,1.786.5c.2.2.2.335.082.418a.4.4,0,0,1-.541-.081,1.843,1.843,0,0,0-.742-.376c-.459,0-.917.542-1.161,1.288a3.093,3.093,0,0,0-.04.958,3.85,3.85,0,0,0,.08.876,2.336,2.336,0,0,0,.747,1.162.444.444,0,0,0,.541,0c.244-.122.371-.255.742-.754a.8.8,0,0,1,.917-.247c.377.163.255.622-.244,1.164a2,2,0,0,1-1.081.623,2.209,2.209,0,0,1-2.79-1.741A5.054,5.054,0,0,1,747.146,607.422Z" transform="translate(-693.514 374.196)" fill="#004341"/>
  </g>
</svg>
